<!DOCTYPE svg>
<svg xmlns="http://www.w3.org/2000/svg" viewBox="0 0 32 32">
  <path
    d="M24.7 5.9c-.3 0-.7 0-1 .2a7 7 0 0 0-4 3.4c-.6-.3-1.3-.5-2-.5h-.4l-1.6 1.6c-1.3-.6-2.6-.8-4.1-.6a8.4 8.4 0 0 0-7.5 7.4c-.3 2.6.6 5.2 2.4 7.1a8.6 8.6 0 0 0 6 2.5l1.1-.1c3.9-.5 7-3.6 7.5-7.6a9 9 0 0 0-.6-4.1l1.5-1.5v-.4c0-.9-.3-1.7-.7-2.4.4-1 1.4-2.4 3-3 .8-.2 1.1 0 1.4.3.2.4.3 1.5-.6 3.4-.7 1.3-2.9 5-1.3 10.8l-2.8.3 2.6 1.3-2 2.8 3.1-1.7 1.2 1.7v-2.2l3.2 1.1-2.1-2.1 1.7-1.3h-2.2V18l-1.1 2.3c-.8-4.1.8-6.5 1.5-7.8 1-2.2 1.2-4 .5-5.3-.4-.6-1-1-1.6-1.2l-1-.1ZM18.1 11c.9.2 1.7.9 1.9 1.9l-.9.9c-1-.1-1.8-.9-1.9-1.9Zm-5.5.9c1 0 1.9.2 2.7.7a4 4 0 0 0 3.2 3.1c.5 1 .7 2.1.6 3.4-.3 3-2.8 5.5-5.7 5.8-2 .2-4-.4-5.4-1.9a6.7 6.7 0 0 1-1.9-5.4 6.4 6.4 0 0 1 5.7-5.6l.8-.1Z" />
</svg>
