<svg xmlns="http://www.w3.org/2000/svg" xml:space="preserve" fill-rule="evenodd" clip-rule="evenodd" image-rendering="optimizeQuality" shape-rendering="geometricPrecision" text-rendering="geometricPrecision" viewBox="0 0 1 20" height="500px" width="500px">
  <path d="M0 0h4.5v8.6H0z"/>
  <path d="m.2 0 1.2 1.2h1.7L4.3 0zm0 8.6 1.2-1.2h1.7l1.2 1.2zm4.3-.1L3.3 7.3V5.5l1.2-1.2zm0-4.2L3.3 3.1V1.3L4.5.1zM0 8.5l1.2-1.2V5.5L0 4.3zm0-4.2 1.2-1.2V1.3L0 .1z" class="fil1"/>
  <path fill="#600000" d="m.2 4.3 1.2.7h1.7l1.2-.7-1.2-.7H1.4l-1.2.7h3.9z"/>
</svg>
